<?xml version="1.0" standalone="no"?>
<!DOCTYPE svg PUBLIC "-//W3C//DTD SVG 1.1//EN"
  "http://www.w3.org/Graphics/SVG/1.1/DTD/svg11.dtd">
<svg version="1.1" xmlns="http://www.w3.org/2000/svg" xmlns:xlink="http://www.w3.org/1999/xlink" width="1920" height="1080" viewBox="-320 1020.5 2096 1179" id="ccdiagram"><filter id="grayscale"><feColorMatrix type="saturate" values="0"></feColorMatrix></filter><filter id="highlight"><feColorMatrix type="matrix" color-interpolation-filters="sRGB" values="0.20338 0 0 0 0
                0 0.58474 0 0 0
                0 0 0.97033 0 0
                0 0 0 1 0"></feColorMatrix></filter><defs><style type="text/css">@import url('https://fonts.googleapis.com/css2?family=Noto+Sans:ital,wght@0,100..900;1,100..900&amp;family=Roboto+Mono:ital,wght@0,100..700;1,100..700&amp;display=swap');</style></defs><g><rect x="-320" y="1020.5" width="2096" height="1179" fill="#ffffff" id="interactionLayer"></rect><g style="pointer-events: none;"><g><pattern id="gridPatternMinor" x="0" y="37" width="128" height="74" patternUnits="userSpaceOnUse"><path d="M 0 0 L 128 74" stroke="#eeeeee" stroke-width="1"></path><path d="M 128 0 L 0 74" stroke="#eeeeee" stroke-width="1"></path></pattern><polygon points="728 415, 2796 1610, 728 2805, -1340 1610" fill="url(#gridPatternMinor)"></polygon></g></g><g pointer-events="auto"><g><g><g><polygon points="1376 1425, 1744 1637, 1744 1674, 1296 1933, 1232 1933, 864 1721, 864 1684, 1312 1425" fill="#ff9800" stroke-width="0" stroke="#e6e7e8"></polygon><polygon points="1344 1443, 1712 1656, 1264 1915, 896 1702" fill="#e6e7e8"></polygon></g></g></g><g><g><g><polygon points="544 1129, 1024 1406, 1024 1443, 864 1536, 800 1536, 320 1258, 320 1221, 480 1129" fill="#4286c5" stroke-width="0" stroke="#e6e7e8"></polygon><polygon points="512 1147, 992 1425, 832 1517, 352 1240" fill="#e6e7e8"></polygon></g></g></g><g><g><g><polygon points="80 1508, 720 1878, 720 1915, 416 2091, 352 2091, -288 1721, -288 1684, 16 1508" fill="#673ab7" stroke-width="0" stroke="#e6e7e8"></polygon><polygon points="48 1526, 688 1896, 384 2072, -256 1702" fill="#e6e7e8"></polygon></g></g></g></g><g style="pointer-events: none;"><g><pattern id="gridPatternMajor" x="0" y="37" width="128" height="74" patternUnits="userSpaceOnUse"><path d="M 64 0 L 128 37 64 74 0 37 z" stroke="#54626f" stroke-width="1" fill="none"></path></pattern><polygon points="728 415, 2796 1610, 728 2805, -1340 1610" fill="url(#gridPatternMajor)"></polygon></g></g><g pointer-events="auto"></g><g pointer-events="auto"></g><g pointer-events="auto"></g><g pointer-events="auto"></g><g pointer-events="auto"><g><g class="cloud-maps_raptor_node" id="7c0fe559-1602-4506-a10e-8da26834ef08"></g></g></g><g pointer-events="auto"></g><g pointer-events="auto"></g><g pointer-events="auto"></g><g pointer-events="auto"></g><g pointer-events="auto"></g><g pointer-events="none"></g><g pointer-events="auto"><g id="f035078e-1407-42bc-ab79-a5ed796ae0b6-6d360b59-2a03-4598-ac1c-e452d2f827c7"><g cursor="cell"><line x1="408" y1="1642" x2="142" y2="1629" stroke="red" stroke-width="8" opacity="0"></line><line x1="408" y1="1642" x2="142" y2="1629" stroke="#000000" stroke-width="2" stroke-linecap="round"></line><polygon points="128 1628, 152 1636, 146 1629, 154 1623, 128 1628" stroke-linejoin="round" fill="#000000" stroke="#000000" stroke-width="1"></polygon></g></g><g id="f035078e-1407-42bc-ab79-a5ed796ae0b6-e8ccf0fe-d2c6-487c-9f3c-83af43685d9a"><g cursor="cell"><line x1="440" y1="1670" x2="267" y2="1735" stroke="red" stroke-width="8" opacity="0"></line><line x1="440" y1="1670" x2="267" y2="1735" stroke="#000000" stroke-width="2" stroke-linecap="round"></line><polygon points="256 1739, 283 1737, 271 1733, 270 1726, 256 1739" stroke-linejoin="round" fill="#000000" stroke="#000000" stroke-width="1"></polygon></g></g><g id="4a8d3a06-df2b-4af6-8df2-babd6f4c34f2-78b643b2-bc27-4c73-84d6-09acf0c5feab"><g cursor="cell"><line x1="928" y1="1388" x2="1046" y2="1319" stroke="red" stroke-width="8" opacity="0"></line><line x1="928" y1="1388" x2="1046" y2="1319" stroke="#000000" stroke-width="2" stroke-linecap="round"></line><polygon points="1056 1314, 1030 1319, 1044 1321, 1047 1328, 1056 1314" stroke-linejoin="round" fill="#000000" stroke="#000000" stroke-width="1"></polygon></g></g><g id="e8ccf0fe-d2c6-487c-9f3c-83af43685d9a-1c2ed816-e147-4ce9-96ee-6d83d22e5cf8"><g cursor="cell"><line x1="224" y1="1795" x2="254" y2="1916" stroke="red" stroke-width="8" opacity="0"></line><line x1="224" y1="1795" x2="254" y2="1916" stroke="#000000" stroke-width="2" stroke-linecap="round"></line><polygon points="256 1924, 264 1909, 254 1914, 241 1911, 256 1924" stroke-linejoin="round" fill="#000000" stroke="#000000" stroke-width="1"></polygon></g></g><g id="b1a21453-2e7c-47be-ac4f-cf5bec8de2a9-6c07c9fc-d4c7-4ee5-8ac5-38e2d6eb7afb"><g cursor="cell"><line x1="832" y1="1702" x2="1010" y2="1702" stroke="red" stroke-width="8" opacity="0"></line><line x1="832" y1="1702" x2="1010" y2="1702" stroke="#000000" stroke-width="2" stroke-linecap="round"></line><polygon points="1024 1702, 999 1695, 1006 1702, 999 1709, 1024 1702" stroke-linejoin="round" fill="#000000" stroke="#000000" stroke-width="1"></polygon></g></g><g id="fba5743f-88cf-4b5b-bbd7-357b7628869e-db95e59e-88fa-4eb5-8d96-6a885dff645e"><g cursor="cell"><line x1="275" y1="1454" x2="371" y2="1477" stroke="red" stroke-width="8" opacity="0"></line><line x1="275" y1="1454" x2="371" y2="1477" stroke="#000000" stroke-width="2" stroke-linecap="round"></line><polygon points="384 1480, 366 1468, 368 1476, 357 1481, 384 1480" stroke-linejoin="round" fill="#000000" stroke="#000000" stroke-width="1"></polygon></g></g><g id="e8ccf0fe-d2c6-487c-9f3c-83af43685d9a-a5941e48-a73d-4961-8dd6-91d1880a9b03"><g cursor="cell"><line x1="128" y1="1739" x2="70" y2="1672" stroke="red" stroke-width="8" opacity="0"></line><line x1="128" y1="1739" x2="70" y2="1672" stroke="#000000" stroke-width="2" stroke-linecap="round"></line><polygon points="64 1665, 65 1681, 72 1674, 85 1675, 64 1665" stroke-linejoin="round" fill="#000000" stroke="#000000" stroke-width="1"></polygon></g></g><g id="4a8d3a06-df2b-4af6-8df2-babd6f4c34f2-11c6e81f-63b7-409b-a48f-7e1d50578108"><g cursor="cell"><line x1="906" y1="1449" x2="1142" y2="1585" stroke="red" stroke-width="8" opacity="0"></line><line x1="906" y1="1449" x2="1142" y2="1585" stroke="#000000" stroke-width="2" stroke-linecap="round"></line><polygon points="896 1443, 905 1458, 908 1450, 922 1448, 896 1443" stroke-linejoin="round" fill="#000000" stroke="#000000" stroke-width="1"></polygon><polygon points="1152 1591, 1143 1576, 1140 1584, 1126 1586, 1152 1591" stroke-linejoin="round" fill="#000000" stroke="#000000" stroke-width="1"></polygon></g></g><g id="fd2cccf3-1203-4cf4-987c-6c32b65690d0-4a8d3a06-df2b-4af6-8df2-babd6f4c34f2"><g cursor="cell"><line x1="1267" y1="1532" x2="909" y2="1446" stroke="red" stroke-width="8" opacity="0"></line><line x1="1267" y1="1532" x2="909" y2="1446" stroke="#000000" stroke-width="2" stroke-linecap="round"></line><polygon points="1280 1536, 1262 1524, 1264 1532, 1253 1536, 1280 1536" stroke-linejoin="round" fill="#000000" stroke="#000000" stroke-width="1"></polygon><polygon points="896 1443, 914 1455, 912 1447, 923 1442, 896 1443" stroke-linejoin="round" fill="#000000" stroke="#000000" stroke-width="1"></polygon></g></g><g id="f035078e-1407-42bc-ab79-a5ed796ae0b6-b1a21453-2e7c-47be-ac4f-cf5bec8de2a9"><g cursor="cell"><line x1="471" y1="1678" x2="691" y2="1701" stroke="red" stroke-width="8" opacity="0"></line><line x1="471" y1="1678" x2="691" y2="1701" stroke="#000000" stroke-width="2" stroke-linecap="round"></line><polygon points="704 1702, 682 1693, 687 1700, 678 1706, 704 1702" stroke-linejoin="round" fill="#000000" stroke="#000000" stroke-width="1"></polygon></g></g><g id="f035078e-1407-42bc-ab79-a5ed796ae0b6-1f528083-bbff-4d4b-a8f7-76b1118dd53a"><g cursor="cell"><line x1="468" y1="1653" x2="572" y2="1593" stroke="red" stroke-width="8" opacity="0"></line><line x1="468" y1="1653" x2="572" y2="1593" stroke="#000000" stroke-width="2" stroke-linecap="round"></line><polygon points="582 1588, 556 1593, 569 1595, 572 1602, 582 1588" stroke-linejoin="round" fill="#000000" stroke="#000000" stroke-width="1"></polygon></g></g><g id="33349e2b-6352-4ea9-982d-6df9ea75a9b3-1e07f02b-6dcb-4b70-87c2-d02e89b41efb"><g cursor="cell"><line x1="585" y1="1263" x2="630" y2="1289" stroke="red" stroke-width="8" opacity="0"></line><line x1="585" y1="1263" x2="630" y2="1289" stroke="#000000" stroke-width="2" stroke-linecap="round"></line><polygon points="640 1295, 631 1280, 628 1288, 614 1290, 640 1295" stroke-linejoin="round" fill="#000000" stroke="#000000" stroke-width="1"></polygon></g></g><g id="39de2601-cc7d-48e7-97f4-12c4a6bdb0e1-d44f5faa-ed86-42ac-ac4f-6a3fd5762522"><g cursor="cell"><line x1="480" y1="1499" x2="643" y2="1524" stroke="red" stroke-width="8" opacity="0"></line><line x1="480" y1="1499" x2="643" y2="1524" stroke="#000000" stroke-width="2" stroke-linecap="round"></line><polygon points="656 1526, 635 1516, 639 1524, 629 1529, 656 1526" stroke-linejoin="round" fill="#000000" stroke="#000000" stroke-width="1"></polygon></g></g><g id="1f528083-bbff-4d4b-a8f7-76b1118dd53a-ec92073b-7f46-45eb-9140-04bfbc9accaf"><g cursor="cell"><line x1="602" y1="1576" x2="662" y2="1541" stroke="red" stroke-width="8" opacity="0"></line><line x1="602" y1="1576" x2="662" y2="1541" stroke="#000000" stroke-width="2" stroke-linecap="round"></line><polygon points="672 1536, 646 1541, 660 1543, 663 1550, 672 1536" stroke-linejoin="round" fill="#000000" stroke="#000000" stroke-width="1"></polygon></g></g><g id="e8ccf0fe-d2c6-487c-9f3c-83af43685d9a-6a9257ef-a7bf-4f11-ba2d-3d4530d81351"><g cursor="cell"><line x1="224" y1="1795" x2="372" y2="1846" stroke="red" stroke-width="8" opacity="0"></line><line x1="224" y1="1795" x2="372" y2="1846" stroke="#000000" stroke-width="2" stroke-linecap="round"></line><polygon points="384 1850, 369 1837, 369 1845, 357 1848, 384 1850" stroke-linejoin="round" fill="#000000" stroke="#000000" stroke-width="1"></polygon></g></g><g id="1e07f02b-6dcb-4b70-87c2-d02e89b41efb-4a8d3a06-df2b-4af6-8df2-babd6f4c34f2"><g cursor="cell"><line x1="736" y1="1351" x2="790" y2="1382" stroke="red" stroke-width="8" opacity="0"></line><line x1="736" y1="1351" x2="790" y2="1382" stroke="#000000" stroke-width="2" stroke-linecap="round"></line><polygon points="800 1388, 791 1373, 788 1380, 774 1382, 800 1388" stroke-linejoin="round" fill="#000000" stroke="#000000" stroke-width="1"></polygon></g></g><g id="4a8d3a06-df2b-4af6-8df2-babd6f4c34f2-2713e7dc-1b67-4640-b954-c6cc2f9d5691"><g cursor="cell"><line x1="900" y1="1450" x2="1020" y2="1658" stroke="red" stroke-width="8" opacity="0"></line><line x1="900" y1="1450" x2="1020" y2="1658" stroke="#000000" stroke-width="2" stroke-linecap="round"></line><polygon points="896 1443, 893 1459, 902 1453, 915 1454, 896 1443" stroke-linejoin="round" fill="#000000" stroke="#000000" stroke-width="1"></polygon><polygon points="1024 1665, 1027 1649, 1018 1655, 1005 1654, 1024 1665" stroke-linejoin="round" fill="#000000" stroke="#000000" stroke-width="1"></polygon></g></g><g id="f035078e-1407-42bc-ab79-a5ed796ae0b6-fba5743f-88cf-4b5b-bbd7-357b7628869e"><g cursor="cell"><line x1="408" y1="1642" x2="280" y2="1461" stroke="red" stroke-width="8" opacity="0"></line><line x1="408" y1="1642" x2="280" y2="1461" stroke="#000000" stroke-width="2" stroke-linecap="round"></line><polygon points="275 1454, 274 1470, 282 1464, 295 1465, 275 1454" stroke-linejoin="round" fill="#000000" stroke="#000000" stroke-width="1"></polygon></g></g><g id="ec92073b-7f46-45eb-9140-04bfbc9accaf-4a8d3a06-df2b-4af6-8df2-babd6f4c34f2"><g cursor="cell"><line x1="753" y1="1489" x2="822" y2="1449" stroke="red" stroke-width="8" opacity="0"></line><line x1="753" y1="1489" x2="822" y2="1449" stroke="#000000" stroke-width="2" stroke-linecap="round"></line><polygon points="832 1443, 806 1448, 820 1450, 823 1458, 832 1443" stroke-linejoin="round" fill="#000000" stroke="#000000" stroke-width="1"></polygon></g></g></g><g pointer-events="auto"><g><g class="cloud-maps_raptor_node" id="78b643b2-bc27-4c73-84d6-09acf0c5feab"><g><polygon points="1088 1221, 1152 1258, 1088 1295, 1024 1258" fill="#ececed"></polygon><polygon points="1024 1295, 1088 1332, 1088 1295, 1024 1258" fill="#d2d2d4" stroke="#83838a"></polygon><polygon points="1088 1332, 1152 1295, 1152 1258, 1088 1295" fill="#b8b8bb" stroke="#83838a"></polygon><polygon points="1088 1221, 1024 1258, 1024 1295, 1088 1332, 1152 1295, 1152 1258" fill="none" stroke="#000000" stroke-width="2"></polygon></g></g></g><g><g class="cloud-maps_raptor_node" id="fd2cccf3-1203-4cf4-987c-6c32b65690d0"><svg x="1261" y="1452" width="100.626" height="115.695"><path fill="#4286c5" d="M50.313 1.155v56.693L99.41 29.501z" fill-rule="evenodd"></path><path fill="#26527b" d="m1.215 29.501 49.098 28.347V1.155z" fill-rule="evenodd"></path><path fill="none" stroke="#020406" d="M50.313 1.155v56.693"></path><path fill="#26527b" d="M50.313 57.847 99.41 29.501l-24.549 70.866-24.548 14.173z" fill-rule="evenodd"></path><path fill="#326ca2" d="m1.215 29.501 49.098 28.347v56.692l-24.55-14.173z" fill-rule="evenodd"></path><path fill="none" stroke="#0e1e2d" d="m1.215 29.501 49.098 28.347L99.41 29.501 50.313 57.848v56.692"></path><path fill="none" stroke="#000000" d="M50.313 1.155 1.214 29.501l24.549 70.866 24.549 14.173 24.548-14.173 24.549-70.866z" stroke-width="2"></path></svg></g></g><g><g class="cloud-maps_raptor_node" id="1e07f02b-6dcb-4b70-87c2-d02e89b41efb"><g><polygon points="704 1258, 768 1295, 704 1332, 640 1295" fill="#ececed"></polygon><polygon points="640 1332, 704 1369, 704 1332, 640 1295" fill="#d2d2d4" stroke="#83838a"></polygon><polygon points="704 1369, 768 1332, 768 1295, 704 1332" fill="#b8b8bb" stroke="#83838a"></polygon><polygon points="704 1258, 640 1295, 640 1332, 704 1369, 768 1332, 768 1295" fill="none" stroke="#000000" stroke-width="2"></polygon></g></g></g><g><g class="cloud-maps_raptor_node" id="4a8d3a06-df2b-4af6-8df2-babd6f4c34f2"><g><polygon points="864 1351, 928 1388, 864 1425, 800 1388" fill="#ececed"></polygon><polygon points="800 1425, 864 1462, 864 1425, 800 1388" fill="#d2d2d4" stroke="#83838a"></polygon><polygon points="864 1462, 928 1425, 928 1388, 864 1425" fill="#b8b8bb" stroke="#83838a"></polygon><polygon points="864 1351, 800 1388, 800 1425, 864 1462, 928 1425, 928 1388" fill="none" stroke="#000000" stroke-width="2"></polygon></g></g></g><g><g class="cloud-maps_raptor_node" id="11c6e81f-63b7-409b-a48f-7e1d50578108"><g><polygon points="1216 1554, 1280 1591, 1216 1628, 1152 1591" fill="#ececed"></polygon><polygon points="1152 1628, 1216 1665, 1216 1628, 1152 1591" fill="#d2d2d4" stroke="#83838a"></polygon><polygon points="1216 1665, 1280 1628, 1280 1591, 1216 1628" fill="#b8b8bb" stroke="#83838a"></polygon><polygon points="1216 1554, 1152 1591, 1152 1628, 1216 1665, 1280 1628, 1280 1591" fill="none" stroke="#000000" stroke-width="2"></polygon></g></g></g><g><g class="cloud-maps_raptor_node" id="2713e7dc-1b67-4640-b954-c6cc2f9d5691"><g><polygon points="1088 1628, 1152 1665, 1088 1702, 1024 1665" fill="#ececed"></polygon><polygon points="1024 1702, 1088 1739, 1088 1702, 1024 1665" fill="#d2d2d4" stroke="#83838a"></polygon><polygon points="1088 1739, 1152 1702, 1152 1665, 1088 1702" fill="#b8b8bb" stroke="#83838a"></polygon><polygon points="1088 1628, 1024 1665, 1024 1702, 1088 1739, 1152 1702, 1152 1665" fill="none" stroke="#000000" stroke-width="2"></polygon></g></g></g><g><g class="cloud-maps_raptor_node" id="ec92073b-7f46-45eb-9140-04bfbc9accaf"><svg x="656" y="1452" width="97" height="94" fill-rule="evenodd" stroke-miterlimit="1"><path fill="#ececed" d="M0 18.6v18.6l32.333 18.6h32.334L97 37.2V18.6L64.667 0H32.333L0 18.6Z"></path><path fill="#b8b8bb" d="M64.667 55.8 97 37.2v37.2L64.667 93V55.8Z"></path><path fill="#d2d2d4" d="M32.333 55.8h32.334V93H32.333V55.8ZM0 37.2v37.2L32.333 93V55.8L0 37.2Z"></path><path fill="none" stroke="#83838a" d="M.955 37.877 32.333 55.8h32.334l31.378-17.923M32.333 55.8v36.211M64.667 55.8v36.574" stroke-width="1.04"></path><path fill="#000000" d="M97 18.6v55.8L64.667 93H32.333L0 74.4V18.6L32.333 0h32.334L97 18.6ZM32.865 1.989 1.989 19.751v53.498l30.876 17.762h31.27l30.876-17.762V19.751L64.135 1.989h-31.27Z"></path><path fill="#4286c5" d="M69.912 15.583c11.818 6.798 11.818 17.836 0 24.635-11.817 6.798-31.007 6.798-42.824 0-11.818-6.799-11.818-17.837 0-24.635 11.817-6.799 31.007-6.799 42.824 0Z"></path><path fill="#ffffff" d="M49.584 14.774c1.824 1.049 1.824 2.753 0 3.802-1.824 1.05-4.786 1.05-6.61 0-1.824-1.049-1.824-2.753 0-3.802 1.824-1.05 4.786-1.05 6.61 0Zm10.867 6.251c1.825 1.049 1.825 2.753 0 3.803-1.824 1.049-4.786 1.049-6.61 0-1.824-1.05-1.824-2.754 0-3.803s4.786-1.049 6.61 0Zm10.868 6.251c1.824 1.05 1.824 2.754 0 3.803-1.825 1.049-4.787 1.049-6.611 0-1.824-1.049-1.824-2.753 0-3.803 1.824-1.049 4.786-1.049 6.611 0Zm-32.822 6.378c1.824 1.05 1.824 2.754 0 3.803-1.825 1.05-4.787 1.05-6.611 0-1.824-1.049-1.824-2.753 0-3.803 1.824-1.049 4.786-1.049 6.611 0Z"></path><path fill="#ffffff" d="M47.458 15.878c.453.26.393.717-.133 1.02-.526.303-1.32.337-1.773.076-.452-.26-.392-.717.133-1.019.526-.303 1.321-.337 1.773-.077Z"></path><path fill="#4286c5" d="M48.111 15.621c1.012.582 1.012 1.526 0 2.108-1.011.582-2.653.582-3.664 0-1.012-.582-1.012-1.526 0-2.108 1.011-.582 2.653-.582 3.664 0Zm10.867 6.251c1.012.582 1.012 1.527 0 2.108-1.011.582-2.653.582-3.664 0-1.012-.581-1.012-1.526 0-2.108 1.011-.581 2.653-.581 3.664 0Zm10.868 6.252c1.011.581 1.011 1.526 0 2.108-1.012.582-2.654.582-3.665 0-1.011-.582-1.011-1.527 0-2.108 1.011-.582 2.653-.582 3.665 0Z"></path><path fill="#ffffff" d="M37.024 34.502c1.011.582 1.011 1.526 0 2.108-1.012.582-2.654.582-3.665 0-1.011-.582-1.011-1.526 0-2.108 1.011-.582 2.653-.582 3.665 0Zm15.277-9.33L37.719 33.56l.482.834 14.584-8.388-.484-.834Z"></path><path fill="#ffffff" stroke="#ffffff" d="m46.993 26.089 6.654-1.146-4.324 5.168c.189-1.691-.757-3.313-2.33-4.022Z" stroke-width=".36"></path><path fill="#ffffff" d="m43.488 19.937-6.057 13.797.886.387 6.056-13.798-.885-.386Z"></path><path fill="#ffffff" stroke="#ffffff" d="m39.76 23.812 4.676-4.854-.405 6.716c-.855-1.474-2.582-2.221-4.271-1.862Z" stroke-width=".36"></path><path fill="#ffffff" d="m61.953 30.061-23.985 3.483.14.955 23.985-3.486-.14-.952Z"></path><path fill="#ffffff" stroke="#ffffff" d="m56.68 28.957 6.608 1.387-5.936 3.209c.804-1.503.526-3.358-.672-4.596Z" stroke-width=".36"></path><path fill="#ffffff" stroke="#ffffff" d="m37.96 33.977 13.12-7.547m-13.207 7.497 5.792-13.134m-5.628 13.229 22.478-3.281" stroke-width="1.93"></path></svg></g></g><g><g class="cloud-maps_raptor_node" id="39de2601-cc7d-48e7-97f4-12c4a6bdb0e1"><g><polygon points="448 1406, 512 1443, 448 1480, 384 1443" fill="#ececed"></polygon><polygon points="384 1480, 448 1517, 448 1480, 384 1443" fill="#d2d2d4" stroke="#83838a"></polygon><polygon points="448 1517, 512 1480, 512 1443, 448 1480" fill="#b8b8bb" stroke="#83838a"></polygon><polygon points="448 1406, 384 1443, 384 1480, 448 1517, 512 1480, 512 1443" fill="none" stroke="#000000" stroke-width="2"></polygon></g></g></g><g><g class="cloud-maps_raptor_node" id="fba5743f-88cf-4b5b-bbd7-357b7628869e"><svg x="199" y="1381" width="81" height="93.28"><path fill="#ececed" d="m1 19.276 47.4 27.366 19.75-2.28L80 10.154 64.2 1.032 4.95 7.873z" fill-rule="evenodd"></path><path fill="#d2d2d4" d="M1 19.276v45.61l47.4 27.366v-45.61zm47.4 27.367 19.75-2.281v45.61l-19.75 2.28z" fill-rule="evenodd"></path><path fill="#b8b8bb" d="m68.149 44.362 11.85-34.208v45.61l-11.85 34.208z" fill-rule="evenodd"></path><path fill="none" stroke="#83838a" d="m1 19.276 47.4 27.366 19.75-2.28L80 10.154M68.149 44.362v45.61M48.4 46.643v45.61"></path><path fill="none" stroke="#000000" d="m1 64.886 47.4 27.366 19.75-2.28L80 55.764v-45.61L64.2 1.032 4.95 7.873 1 19.276z" stroke-width="2.001"></path><path fill="none" d="M63.701 12.535c-2.409-.04-4.797-.59-6.636-1.651-1.838-1.062-2.791-2.441-2.86-3.832l-13.225.134c.418 1.626-.456 3.341-2.624 4.593-1.374.793-3.07 1.286-4.844 1.48-2.363.256-4.634.914-6.462 1.97-4.814 2.778-4.83 7.278-.05 10.07 2.771 1.6 4.329 3.616 4.715 5.703 3.616.224 7.108 1.122 9.88 2.723 4.834 2.76 12.628 2.75 17.442-.03 1.828-1.056 2.967-2.367 3.411-3.73.336-1.026 1.19-2.005 2.563-2.798 2.168-1.251 5.14-1.756 7.956-1.515l.23-7.636c-2.408-.038-4.797-.589-6.636-1.65-1.838-1.062-2.792-2.441-2.86-3.832z"></path><path fill="#4286c5" d="M65.307 16.25c1.766 1.022 3.993 1.616 6.293 1.783l-.193 6.399c-2.755-.051-5.542.531-7.647 1.749-1.525.882-2.476 1.973-2.848 3.114-.406 1.247-1.444 2.445-3.112 3.41-4.39 2.54-11.5 2.548-15.909.026-2.73-1.578-6.12-2.515-9.657-2.831-.547-2.048-2.168-4.009-4.9-5.589-4.355-2.55-4.338-6.66.051-9.199 1.668-.965 3.739-1.565 5.895-1.8 1.972-.215 3.859-.765 5.384-1.647 2.105-1.218 3.112-2.83 3.024-4.423l11.063-.112c.288 1.33 1.316 2.618 3.082 3.64 1.789 1.034 4.05 1.631 6.38 1.789.273 1.348 1.305 2.656 3.094 3.69z" fill-rule="evenodd"></path><g><path fill="#ffffff" d="M177.61 45.984h2.004v.43h-1.537v.925q.112-.038.223-.056.11-.02.222-.02.632 0 1.001.346.369.346.369.938 0 .609-.38.948-.378.336-1.068.336-.238 0-.485-.04-.246-.041-.508-.122v-.513q.227.124.47.184.242.061.513.061.437 0 .692-.23.255-.23.255-.624t-.255-.624q-.255-.23-.692-.23-.205 0-.41.045-.202.046-.414.142zm4.837 1.739q.367.078.571.326.208.248.208.612 0 .558-.385.864-.384.306-1.091.306-.238 0-.49-.048-.25-.046-.519-.14v-.492q.212.124.465.187t.528.063q.48 0 .73-.19.254-.189.254-.55 0-.334-.235-.521-.233-.19-.65-.19h-.44v-.42h.46q.377 0 .576-.148.2-.152.2-.435 0-.29-.207-.445-.205-.157-.589-.157-.21 0-.45.046-.24.045-.528.142v-.455q.29-.081.543-.122.256-.04.48-.04.582 0 .92.265.34.263.34.713 0 .313-.18.53-.18.216-.51.299z" transform="matrix(3.51516 2.03321 -3.51516 2.03321 -420.18 -441.142)" font-family="Interstate" font-size="5.176"></path></g></svg></g></g><g><g class="cloud-maps_raptor_node" id="b1a21453-2e7c-47be-ac4f-cf5bec8de2a9"><g><polygon points="768 1665, 832 1702, 768 1739, 704 1702" fill="#ececed"></polygon><polygon points="704 1739, 768 1776, 768 1739, 704 1702" fill="#d2d2d4" stroke="#83838a"></polygon><polygon points="768 1776, 832 1739, 832 1702, 768 1739" fill="#b8b8bb" stroke="#83838a"></polygon><polygon points="768 1665, 704 1702, 704 1739, 768 1776, 832 1739, 832 1702" fill="none" stroke="#000000" stroke-width="2"></polygon></g></g></g><g><g class="cloud-maps_raptor_node" id="f035078e-1407-42bc-ab79-a5ed796ae0b6"><svg x="408" y="1588" width="63" height="95.068"><path fill="#000" stroke="#000000" d="M62.5 85.684q0 6.102-3.216 7.779-3.216 1.677-8.542-1.398l-38.486-22.22q-5.329-3.077-8.542-8.466Q.501 55.991.498 49.887q0-2.693.156-5.172.155-2.479.616-5.185.461-2.707 1.167-4.845.705-2.139 1.893-3.864 1.19-1.726 2.73-2.541 1.541-.816 3.766-.546 2.224.27 4.91 1.818.397.23 1.849 2.162t3.28 4.333q1.827 2.402 4.757 5.187 2.93 2.785 5.878 4.487 2.95 1.703 5.88 2.301 2.929.598 4.756.306 1.827-.292 3.28-.546 1.452-.255 1.85-.026 2.685 1.55 4.909 3.85 2.224 2.301 3.765 4.894 1.542 2.593 2.73 5.693 1.189 3.101 1.894 6.051.705 2.95 1.166 6.192.462 3.242.617 5.897.155 2.655.155 5.352zm-14.09-53.54q0 8.083-4.955 10.944-4.954 2.86-11.955-1.182-7-4.042-11.955-12.623-4.954-8.58-4.954-16.664 0-8.084 4.954-10.944 4.954-2.86 11.955 1.181 7.001 4.042 11.955 12.623 4.954 8.58 4.954 16.665z" stroke-width=".996"></path></svg></g></g><g><g class="cloud-maps_raptor_node" id="df9e7fde-5c7d-491f-8241-faddbed780c9"><g><polygon points="64 1554, 128 1591, 64 1628, 0 1591" fill="#ececed"></polygon><polygon points="0 1628, 64 1665, 64 1628, 0 1591" fill="#d2d2d4" stroke="#83838a"></polygon><polygon points="64 1665, 128 1628, 128 1591, 64 1628" fill="#b8b8bb" stroke="#83838a"></polygon><polygon points="64 1554, 0 1591, 0 1628, 64 1665, 128 1628, 128 1591" fill="none" stroke="#000000" stroke-width="2"></polygon></g></g></g><g><g class="cloud-maps_raptor_node" id="e2da0218-d7b2-4008-9076-99ba47e8918b"><g><polygon points="448 1776, 512 1813, 448 1850, 384 1813" fill="#ececed"></polygon><polygon points="384 1850, 448 1887, 448 1850, 384 1813" fill="#d2d2d4" stroke="#83838a"></polygon><polygon points="448 1887, 512 1850, 512 1813, 448 1850" fill="#b8b8bb" stroke="#83838a"></polygon><polygon points="448 1776, 384 1813, 384 1850, 448 1887, 512 1850, 512 1813" fill="none" stroke="#000000" stroke-width="2"></polygon></g></g></g><g><g class="cloud-maps_raptor_node" id="e8ccf0fe-d2c6-487c-9f3c-83af43685d9a"><g><polygon points="192 1702, 256 1739, 192 1776, 128 1739" fill="#ececed"></polygon><polygon points="128 1776, 192 1813, 192 1776, 128 1739" fill="#d2d2d4" stroke="#83838a"></polygon><polygon points="192 1813, 256 1776, 256 1739, 192 1776" fill="#b8b8bb" stroke="#83838a"></polygon><polygon points="192 1702, 128 1739, 128 1776, 192 1813, 256 1776, 256 1739" fill="none" stroke="#000000" stroke-width="2"></polygon></g></g></g><g><g class="cloud-maps_raptor_node" id="f7467639-c118-41fe-aabc-468f9db65b4f"><g><polygon points="320 1850, 384 1887, 320 1924, 256 1887" fill="#ececed"></polygon><polygon points="256 1924, 320 1961, 320 1924, 256 1887" fill="#d2d2d4" stroke="#83838a"></polygon><polygon points="320 1961, 384 1924, 384 1887, 320 1924" fill="#b8b8bb" stroke="#83838a"></polygon><polygon points="320 1850, 256 1887, 256 1924, 320 1961, 384 1924, 384 1887" fill="none" stroke="#000000" stroke-width="2"></polygon></g></g></g></g><g pointer-events="auto"><g><g class="cloud-maps_raptor_node" id="e2c14061-9939-4a5c-b370-85523a23ca42"><svg x="160" y="1758" overflow="visible"><g transform="scale(1.415) matrix(0.707 0.409 -0.707 0.409 0 0)"><svg x="-24" y="-24" overflow="visible"><image xlink:href="https://images.cloudcraft.co/df700170-013e-4c1c-a6e5-55ecabd8e884/springboot.png" width="48" height="48"></image></svg></g></svg></g></g><g><g class="cloud-maps_raptor_node" id="6f725877-8d7f-4461-b3f9-fd569425a200"><svg x="320" y="1887" overflow="visible"><g transform="scale(1.415) matrix(0.707 0.409 -0.707 0.409 0 0)"><svg x="-24" y="-24" overflow="visible"><image xlink:href="https://images.cloudcraft.co/df700170-013e-4c1c-a6e5-55ecabd8e884/icons8-%C3%AB%C2%A0%C2%88%C3%AB%C2%94%C2%94%C3%AC%C2%8A%C2%A4-48.png" width="48" height="48"></image></svg></g></svg></g></g><g><g class="cloud-maps_raptor_node" id="3cc365fc-9163-4e8b-93a6-9d7089d71fa9"><svg x="64" y="1591" overflow="visible"><g transform="scale(0.4245000000000002) matrix(0.707 0.409 -0.707 0.409 0 0)"><svg x="-111.5" y="-111" overflow="visible"><image xlink:href="https://images.cloudcraft.co/df700170-013e-4c1c-a6e5-55ecabd8e884/%C3%AD%C2%95%C2%80%C3%AD%C2%8F%C2%AC%C3%AC%C2%9D%C2%B8%C3%AD%C2%8A%C2%B8.png" width="223" height="222"></image></svg></g></svg></g></g></g><g pointer-events="auto"><g><g class="cloud-maps_raptor_node" id="fdadb634-7ba5-4a55-8029-d6921e929786"><svg x="448" y="1443" overflow="visible"><g transform="scale(1.4131949617798671) matrix(0.707 0.409 -0.707 0.409 0 0)"><circle cx="0" cy="0" fill="transparent" r="39"></circle><svg width="64" height="64" x="-32" y="-32" style="fill: rgb(255, 255, 255);"><svg xmlns="http://www.w3.org/2000/svg" width="64" height="64" viewBox="0 0 64 64"><defs><linearGradient id="Amplify_svg__a" x1="0%" x2="100%" y1="100%" y2="0%"><stop offset="0%" stop-color="#BD0816"></stop><stop offset="100%" stop-color="#FF5252"></stop></linearGradient></defs><g fill="none" fill-rule="evenodd"><g fill="url(#Amplify_svg__a)"><path d="M0 0h64v64H0z"></path></g><path fill="#FFF" d="M46.637 47.677 32.333 17h3.794L50.43 47.677h-3.794Zm6.27.578L37.67 15.577a.999.999 0 0 0-.906-.577h-6a1 1 0 0 0-.906 1.422l15.236 32.677a1 1 0 0 0 .906.578h6a1 1 0 0 0 .907-1.422Zm-16.277-.578-10.536-22.03 2.325-3.846 12.015 25.876H36.63Zm-7.187-28.422a1.005 1.005 0 0 0-.853-.578.96.96 0 0 0-.91.481l-3.576 5.915a.999.999 0 0 0-.047.95l11.04 23.086c.167.347.519.568.903.568h6a1 1 0 0 0 .908-1.421L29.443 19.255Zm-16.67 28.422 9.639-15.94 1.619 3.236-4.782 8.102a1 1 0 0 0 .862 1.508h8.704l1.56 3.094H12.774Zm17.55-4.544a1 1 0 0 0-.893-.55h-7.568l4.168-7.062c.17-.292.184-.652.033-.955l-2.673-5.347a1 1 0 0 0-.855-.552.986.986 0 0 0-.895.482l-11.495 19.01A1 1 0 0 0 11 49.677h21a1 1 0 0 0 .893-1.451l-2.57-5.093Z"></path></g></svg></svg></g></svg></g></g><g><g class="cloud-maps_raptor_node" id="1f528083-bbff-4d4b-a8f7-76b1118dd53a"><svg x="592" y="1582" overflow="visible"><g transform="scale(0.8944271909999159) matrix(0.707 0.409 -0.707 0.409 0 0)"><circle cx="0" cy="0" fill="#000000" r="23"></circle><svg width="21" height="32" x="-10.5" y="-16" style="fill: rgb(255, 255, 255);"><svg xmlns="http://www.w3.org/2000/svg" width="21" height="32" viewBox="0 0 21 32"><path d="M5.714 13.714h9.143v-3.429c0-2.518-2.054-4.571-4.571-4.571s-4.571 2.054-4.571 4.571v3.429zm14.857 1.715v10.286c0 .946-.768 1.714-1.714 1.714H1.714A1.715 1.715 0 0 1 0 25.715V15.429c0-.946.768-1.714 1.714-1.714h.571v-3.429c0-4.393 3.607-8 8-8s8 3.607 8 8v3.429h.571c.946 0 1.714.768 1.714 1.714z"></path></svg></svg></g></svg></g></g><g><g class="cloud-maps_raptor_node" id="0134db87-6d17-4d3e-8aef-38ecae676442"><svg x="1216" y="1591" overflow="visible"><g transform="scale(1.4131949617798671) matrix(0.707 0.409 -0.707 0.409 0 0)"><circle cx="0" cy="0" fill="transparent" r="39"></circle><svg width="64" height="64" x="-32" y="-32" style="fill: rgb(255, 255, 255);"><svg xmlns="http://www.w3.org/2000/svg" width="64" height="64" viewBox="0 0 64 64"><defs><linearGradient id="RDS_svg__a" x1="0%" x2="100%" y1="100%" y2="0%"><stop offset="0%" stop-color="#2E27AD"></stop><stop offset="100%" stop-color="#527FFF"></stop></linearGradient></defs><g fill="none" fill-rule="evenodd"><g fill="url(#RDS_svg__a)"><path d="M0 0h64v64H0z"></path></g><path fill="#FFF" d="M54 11v8h-2v-5.586l-6.293 6.293-1.414-1.414L50.586 12h-5.461v-2H53a1 1 0 0 1 1 1Zm-42 7.875h-2V11a1 1 0 0 1 1-1h8v2h-5.586l6.293 6.293-1.414 1.414L12 13.414v5.461Zm7.707 26.832L13.414 52h5.461v2H11a1 1 0 0 1-1-1v-8h2v5.586l6.293-6.293 1.414 1.414ZM51.5 31.781c0-2.429-2.866-4.849-7.667-6.474l.641-1.894c5.736 1.941 9.026 4.991 9.026 8.368 0 3.377-3.29 6.427-9.026 8.369l-.641-1.895c4.801-1.624 7.667-4.045 7.667-6.474Zm-38.957 0c0 2.324 2.681 4.679 7.172 6.3l-.68 1.88c-5.396-1.947-8.492-4.928-8.492-8.18 0-3.251 3.096-6.233 8.492-8.18l.68 1.881c-4.491 1.621-7.172 3.976-7.172 6.299ZM52 45.125h2V53a1 1 0 0 1-1 1h-8v-2h5.586l-6.293-6.293 1.414-1.414L52 50.586v-5.461ZM32.022 31.402c-5.023 0-7.896-1.343-8.022-1.919v-3.226c2.159 1.009 5.609 1.336 8 1.336s5.841-.327 8-1.336v3.226c-.106.574-2.949 1.919-7.978 1.919Zm0 5.728c-5.023 0-7.896-1.344-8.022-1.92v-3.254c1.953.981 5.055 1.446 8.022 1.446 2.951 0 6.033-.464 7.978-1.442v3.25c-.106.575-2.948 1.92-7.978 1.92ZM32 42.268c-5.05 0-7.896-1.351-8-1.922v-2.663c1.953.982 5.055 1.447 8.022 1.447 2.951 0 6.033-.464 7.978-1.443v2.655c-.104.575-2.95 1.926-8 1.926Zm0-20.075c4.971 0 7.642 1.177 7.982 1.701-.34.523-3.011 1.699-7.982 1.699-5.091 0-7.767-1.232-8-1.644v-.019c.233-.504 2.909-1.737 8-1.737Zm0-2c-3.714 0-10 .78-10 3.701v16.452c0 2.695 5.184 3.922 10 3.922s10-1.227 10-3.922V23.894c0-2.921-6.286-3.701-10-3.701Z"></path></g></svg></svg></g></svg></g></g><g><g class="cloud-maps_raptor_node" id="33349e2b-6352-4ea9-982d-6df9ea75a9b3"><svg x="576" y="1258" overflow="visible"><g transform="scale(0.8944271909999159) matrix(0.707 0.409 -0.707 0.409 0 0)"><circle cx="0" cy="0" fill="#000000" r="23"></circle><svg width="27" height="32" x="-13.5" y="-16" style="fill: rgb(255, 255, 255);"><svg xmlns="http://www.w3.org/2000/svg" width="27" height="32" viewBox="0 0 27 32"><path d="M13.714 2.286c7.571 0 13.714 6.143 13.714 13.714 0 6.054-3.929 11.196-9.375 13.018-.696.125-.946-.304-.946-.661 0-.446.018-1.929.018-3.768 0-1.286-.429-2.107-.929-2.536 3.054-.339 6.268-1.5 6.268-6.768 0-1.5-.536-2.714-1.411-3.679.143-.357.607-1.75-.143-3.643-1.143-.357-3.768 1.411-3.768 1.411a12.895 12.895 0 0 0-6.858 0S7.659 7.606 6.516 7.963c-.75 1.893-.286 3.286-.143 3.643-.875.964-1.411 2.179-1.411 3.679 0 5.25 3.196 6.429 6.25 6.768-.393.357-.75.964-.875 1.839-.786.357-2.786.964-3.982-1.143-.75-1.304-2.107-1.411-2.107-1.411-1.339-.018-.089.839-.089.839.893.411 1.518 2 1.518 2 .804 2.446 4.625 1.625 4.625 1.625 0 1.143.018 2.214.018 2.554 0 .357-.25.786-.946.661-5.446-1.821-9.375-6.964-9.375-13.018 0-7.571 6.143-13.714 13.714-13.714zM5.196 21.982c.036-.071-.018-.161-.125-.214-.107-.036-.196-.018-.232.036-.036.071.018.161.125.214.089.054.196.036.232-.036zm.554.607c.071-.054.054-.179-.036-.286-.089-.089-.214-.125-.286-.054-.071.054-.054.179.036.286.089.089.214.125.286.054zm.536.804c.089-.071.089-.214 0-.339-.071-.125-.214-.179-.304-.107-.089.054-.089.196 0 .321s.232.179.304.125zm.75.75c.071-.071.036-.232-.071-.339-.125-.125-.286-.143-.357-.054-.089.071-.054.232.071.339.125.125.286.143.357.054zm1.018.446c.036-.107-.071-.232-.232-.286-.143-.036-.304.018-.339.125s.071.232.232.268c.143.054.304 0 .339-.107zm1.125.09c0-.125-.143-.214-.304-.196-.161 0-.286.089-.286.196 0 .125.125.214.304.196.161 0 .286-.089.286-.196zm1.035-.179c-.018-.107-.161-.179-.321-.161-.161.036-.268.143-.25.268.018.107.161.179.321.143s.268-.143.25-.25z"></path></svg></svg></g></svg></g></g><g><g class="cloud-maps_raptor_node" id="43f2bc95-6d9d-453a-9f63-84dd639f967c"><svg x="704" y="1295" overflow="visible"><g transform="scale(1.4131949617798671) matrix(0.707 0.409 -0.707 0.409 0 0)"><circle cx="0" cy="0" fill="transparent" r="39"></circle><svg width="64" height="64" x="-32" y="-32" style="fill: rgb(255, 255, 255);"><svg xmlns="http://www.w3.org/2000/svg" width="64" height="64" viewBox="0 0 64 64"><defs><linearGradient id="Elastic-Container-Registry_svg__a" x1="0%" x2="100%" y1="100%" y2="0%"><stop offset="0%" stop-color="#C8511B"></stop><stop offset="100%" stop-color="#F90"></stop></linearGradient></defs><g fill="none" fill-rule="evenodd"><g fill="url(#Elastic-Container-Registry_svg__a)"><path d="M0 0h64v64H0z"></path></g><g fill="#FFF"><path d="M30.726 29.922c-.447.26-.726.745-.726 1.263v20.35l-15-8.677V23.01l17.172-9.933 14.916 7.38-16.362 9.464Zm18.978-9.502c0-.518-.278-1-.783-1.288l-16.042-7.936a1.447 1.447 0 0 0-1.451-.002l-17.699 10.24c-.449.259-.729.743-.729 1.263v20.476c0 .518.279 1.001.728 1.262l16.088 9.306a1.45 1.45 0 0 0 1.456.001c.449-.259.728-.743.728-1.263v-20.98l16.978-9.821c.448-.259.726-.74.726-1.258ZM50 42.941l-12.996 8.592V44.41l6.599-4.994c.25-.19.397-.486.397-.8V30.48l6-3.474v15.935Zm1.273-18.142a1.452 1.452 0 0 0-1.456 0l-6.938 4.014c-.24.13-.879.475-.879 1.217v8.087l-6.337 4.796a1.465 1.465 0 0 0-.659 1.221v8.412c0 .52.28 1.004.729 1.264.218.125.462.19.712.19.264 0 .537-.072.794-.222l14.036-9.28c.447-.26.725-.744.725-1.262V26.063c0-.52-.279-1.004-.727-1.264Z"></path></g></g></svg></svg></g></svg></g></g><g><g class="cloud-maps_raptor_node" id="3333e15c-2a0e-4b16-87ab-241bf0464c1f"><svg x="864" y="1388" overflow="visible"><g transform="scale(1.4131949617798671) matrix(0.707 0.409 -0.707 0.409 0 0)"><circle cx="0" cy="0" fill="transparent" r="39"></circle><svg width="64" height="64" x="-32" y="-32" style="fill: rgb(255, 255, 255);"><svg xmlns="http://www.w3.org/2000/svg" width="64" height="64" viewBox="0 0 64 64"><defs><linearGradient id="Elastic-Container-Service_svg__a" x1="0%" x2="100%" y1="100%" y2="0%"><stop offset="0%" stop-color="#C8511B"></stop><stop offset="100%" stop-color="#F90"></stop></linearGradient></defs><g fill="none" fill-rule="evenodd"><g fill="url(#Elastic-Container-Service_svg__a)"><path d="M0 0h64v64H0z"></path></g><g fill="#FFF"><path d="m50 36.382-6-3V25a.999.999 0 0 0-.515-.874L35 19.412V12.75l15 8.822v14.81Zm1.507-16.244-17-10a1.001 1.001 0 0 0-1.507.863v9c0 .362.197.697.515.873L42 25.588V34c0 .38.214.725.553.895l8 4a1.005 1.005 0 0 0 .972-.044c.295-.183.475-.504.475-.85V21c0-.355-.188-.683-.493-.863ZM32 51.828 15 41.439V21.554l14-8.75v6.642l-7.53 4.706A1 1 0 0 0 21 25v13a1 1 0 0 0 .485.857l10 6a1 1 0 0 0 .994.021l10.509-5.732 5.047 2.883L32 51.828Zm18.496-10.696-7-4a.998.998 0 0 0-.975-.01l-10.498 5.726L23 37.434v-11.88l7.53-4.706A1 1 0 0 0 31 20v-9a1 1 0 0 0-1.53-.847l-16 10A1 1 0 0 0 13 21v21c0 .348.182.671.479.854l18 11a1.004 1.004 0 0 0 1.042 0l18-11a1 1 0 0 0-.025-1.722Z"></path></g></g></svg></svg></g></svg></g></g><g><g class="cloud-maps_raptor_node" id="2b1f7f8a-c07b-4ade-96e1-afc9c43bd078"><svg x="1088" y="1665" overflow="visible"><g transform="scale(1.4131949617798671) matrix(0.707 0.409 -0.707 0.409 0 0)"><circle cx="0" cy="0" fill="transparent" r="39"></circle><svg width="64" height="64" x="-32" y="-32" style="fill: rgb(255, 255, 255);"><svg xmlns="http://www.w3.org/2000/svg" width="64" height="64" viewBox="0 0 64 64"><defs><linearGradient id="ElastiCache_svg__a" x1="0%" x2="100%" y1="100%" y2="0%"><stop offset="0%" stop-color="#2E27AD"></stop><stop offset="100%" stop-color="#527FFF"></stop></linearGradient></defs><g fill="none" fill-rule="evenodd"><g fill="url(#ElastiCache_svg__a)"><path d="M0 0h64v64H0z"></path></g><path fill="#FFF" d="M40.05 35.279V30.62c-1.988 1.103-5.194 1.62-8.386 1.62-3.35 0-6.025-.554-7.714-1.517v4.555c0 .953 2.452 2.364 7.714 2.364 5.506 0 8.386-1.54 8.386-2.364Zm0 6.73v-3.984c-1.988 1.103-5.194 1.62-8.386 1.62-3.35 0-6.025-.554-7.714-1.518v3.882c0 .953 2.452 2.363 7.714 2.363 5.506 0 8.386-1.54 8.386-2.364Zm0 6.655v-3.91c-1.988 1.103-5.194 1.62-8.386 1.62-3.35 0-6.025-.554-7.714-1.517v3.807c0 .978 2.682 2.334 7.717 2.334 5.504 0 8.383-1.52 8.383-2.334Zm-16.1-20.79c0 .992 2.681 2.365 7.714 2.365 5.506 0 8.386-1.54 8.386-2.364 0-.825-2.88-2.364-8.386-2.364-5.033 0-7.714 1.373-7.714 2.364Zm18.1 0c0 .05-.013.097-.016.146h.016v20.644c0 2.995-5.215 4.336-10.383 4.336-5.902 0-9.717-1.702-9.717-4.336V28.019h.013c-.002-.048-.013-.095-.013-.144 0-2.652 3.813-4.366 9.714-4.366 5.17 0 10.386 1.35 10.386 4.366ZM53 18.005a1 1 0 0 0 1-1v-4.003A1 1 0 0 0 53 12H11a1 1 0 0 0-1 1v4.004a1 1 0 0 0 1 1 1.502 1.502 0 0 1 0 3.003 1 1 0 0 0-1 1.001v16.013a1 1 0 0 0 1 1h8v-2h-4v-2.002h4v-2.002h-5a1 1 0 0 0-1 1v3.003h-1V22.863a3.507 3.507 0 0 0 2.5-3.357 3.508 3.508 0 0 0-2.5-3.358v-2.146h40v2.146a3.509 3.509 0 0 0-2.5 3.358 3.509 3.509 0 0 0 2.5 3.357V37.02h-1v-3.002a1 1 0 0 0-1-1.001h-5v2.002h4v2.001h-4v2.002h8a1 1 0 0 0 1-1.001V22.008a1 1 0 0 0-1-1 1.502 1.502 0 0 1 0-3.003ZM22 23.01v-6.005a1 1 0 0 0-1-1h-4a1 1 0 0 0-1 1v13.01a1 1 0 0 0 1 1.001h2v-2.001h-1v-11.01h2v5.005h2Zm24 6.005h-1v2.001h2a1 1 0 0 0 1-1V17.003a1 1 0 0 0-1-1h-4a1 1 0 0 0-1 1v6.005h2v-5.004h2v11.009Zm-6-7.006v-5.004a1 1 0 0 0-1-1h-5a1 1 0 0 0-1 1v4.003h2v-3.002h3v4.003h2Zm-11-1v-3.003h-3v4.003h-2v-5.004a1 1 0 0 1 1-1h5a1 1 0 0 1 1 1v4.003h-2Z"></path></g></svg></svg></g></svg></g></g><g><g class="cloud-maps_raptor_node" id="9a1eab1f-5a72-459b-92ae-a6f33d0c40ee"><svg x="768" y="1702" overflow="visible"><g transform="scale(1.4131949617798671) matrix(0.707 0.409 -0.707 0.409 0 0)"><circle cx="0" cy="0" fill="transparent" r="39"></circle><svg width="64" height="64" x="-32" y="-32" style="fill: rgb(255, 255, 255);"><svg xmlns="http://www.w3.org/2000/svg" width="64" height="64" viewBox="0 0 64 64"><defs><linearGradient id="EC2_svg__a" x1="0%" x2="100%" y1="100%" y2="0%"><stop offset="0%" stop-color="#C8511B"></stop><stop offset="100%" stop-color="#F90"></stop></linearGradient></defs><g fill="none" fill-rule="evenodd"><g fill="url(#EC2_svg__a)"><path d="M0 0h64v64H0z"></path></g><path fill="#FFF" d="M22 41h19V23H22v18Zm21-18h3v2h-3v2h3v2h-3v2h3v2h-3v3h3v2h-3v2h3v2h-3.137c-.255.587-.84 1-1.519 1H41v3h-2v-3h-2v3h-2v-3h-2v3h-2v-3h-2v3h-2v-3h-3v3h-2v-3h-.344a1.66 1.66 0 0 1-1.519-1H18v-2h2v-2h-2v-2h2v-3h-2v-2h2v-2h-2v-2h2v-2h-2v-2h2v-.344c0-.913.743-1.656 1.656-1.656H22v-3h2v3h3v-3h2v3h2v-3h2v3h2v-3h2v3h2v-3h2v3h.344c.913 0 1.656.743 1.656 1.656V23ZM32 52H12V32h4v-2h-4.157A1.845 1.845 0 0 0 10 31.843v20.314c0 1.016.826 1.843 1.843 1.843h20.314A1.845 1.845 0 0 0 34 52.157V48h-2v4Zm22-40.157v20.314A1.845 1.845 0 0 1 52.157 34H48v-2h4V12H32v4h-2v-4.157c0-1.016.826-1.843 1.843-1.843h20.314c1.017 0 1.843.827 1.843 1.843Z"></path></g></svg></svg></g></svg></g></g><g><g class="cloud-maps_raptor_node" id="6c058094-1fe5-46a4-834e-1420c51ee1f1"><svg x="1088" y="1258" overflow="visible"><g transform="scale(1.4131949617798671) matrix(0.707 0.409 -0.707 0.409 0 0)"><circle cx="0" cy="0" fill="transparent" r="39"></circle><svg width="64" height="64" x="-32" y="-32" style="fill: rgb(255, 255, 255);"><svg xmlns="http://www.w3.org/2000/svg" width="64" height="64" viewBox="0 0 64 64"><defs><linearGradient id="CloudWatch_svg__a" x1="0%" x2="100%" y1="100%" y2="0%"><stop offset="0%" stop-color="#B0084D"></stop><stop offset="100%" stop-color="#FF4F8B"></stop></linearGradient></defs><g fill="none" fill-rule="evenodd"><g fill="url(#CloudWatch_svg__a)"><path d="M0 0h64v64H0z"></path></g><path fill="#FFF" d="M42.184 39.381a4.095 4.095 0 0 0-8.189 0 4.095 4.095 0 0 0 8.189 0Zm2 0c0 3.353-2.734 6.081-6.095 6.081-3.36 0-6.094-2.728-6.094-6.08 0-3.354 2.734-6.082 6.094-6.082 3.361 0 6.095 2.728 6.095 6.081Zm6.559 10.235-4.897-4.4a9.992 9.992 0 0 1-1.061 1.19l4.886 4.397a.806.806 0 0 0 1.131-.059.801.801 0 0 0-.059-1.128Zm-12.654-2.524c4.262 0 7.729-3.46 7.729-7.71 0-4.252-3.467-7.711-7.729-7.711-4.26 0-7.727 3.459-7.727 7.71 0 4.251 3.467 7.71 7.727 7.71Zm13.992 1.042a2.796 2.796 0 0 1 .207 3.946c-.553.61-1.317.92-2.083.92a2.797 2.797 0 0 1-1.872-.713l-5.161-4.646a9.668 9.668 0 0 1-5.083 1.446c-5.364 0-9.727-4.354-9.727-9.706 0-5.352 4.363-9.706 9.727-9.706 5.365 0 9.729 4.354 9.729 9.706a9.61 9.61 0 0 1-.921 4.095l5.184 4.658ZM17.697 23.538c0 .401.023.8.07 1.185a.997.997 0 0 1-.806 1.101C15.084 26.308 12 27.772 12 32.157c0 3.323 1.836 5.157 3.377 6.11.672.423 1.263.638 1.761.643h8.989v1.996h-9c-.884-.01-1.827-.329-2.81-.947C12.708 38.964 10 36.62 10 32.157c0-5.27 3.526-7.293 5.71-8.04a13.965 13.965 0 0 1-.013-.579c0-4.378 2.976-8.916 6.924-10.56 4.611-1.927 9.498-.971 13.066 2.556 1.047 1.033 1.917 2.274 2.598 3.702a5.284 5.284 0 0 1 3.174-1.061c2.415 0 5.128 1.793 5.663 5.715C50.58 24.722 54 27.278 54 32.217c0 2.89-1.136 5.24-3.287 6.792l-1.172-1.616C51.173 36.214 52 34.473 52 32.217c0-4.978-4.189-6.217-5.99-6.519a.996.996 0 0 1-.824-1.127c-.255-3.04-2.045-4.401-3.727-4.401-1.057 0-2.05.516-2.725 1.416a.999.999 0 0 1-1.741-.26c-.634-1.752-1.547-3.223-2.712-4.375-1.43-1.411-5.348-4.444-10.89-2.132-3.193 1.33-5.694 5.16-5.694 8.72Z"></path></g></svg></svg></g></svg></g></g><g><g class="cloud-maps_raptor_node" id="231f3abb-42a3-462c-a0f1-7c56fb245098"><svg x="448" y="1813" overflow="visible"><g transform="scale(1.4131949617798671) matrix(0.707 0.409 -0.707 0.409 0 0)"><circle cx="0" cy="0" fill="transparent" r="39"></circle><svg width="64" height="64" x="-32" y="-32" style="fill: rgb(255, 255, 255);"><svg xmlns="http://www.w3.org/2000/svg" width="64" height="64" viewBox="0 0 64 64"><defs><linearGradient id="RDS_svg__a" x1="0%" x2="100%" y1="100%" y2="0%"><stop offset="0%" stop-color="#2E27AD"></stop><stop offset="100%" stop-color="#527FFF"></stop></linearGradient></defs><g fill="none" fill-rule="evenodd"><g fill="url(#RDS_svg__a)"><path d="M0 0h64v64H0z"></path></g><path fill="#FFF" d="M54 11v8h-2v-5.586l-6.293 6.293-1.414-1.414L50.586 12h-5.461v-2H53a1 1 0 0 1 1 1Zm-42 7.875h-2V11a1 1 0 0 1 1-1h8v2h-5.586l6.293 6.293-1.414 1.414L12 13.414v5.461Zm7.707 26.832L13.414 52h5.461v2H11a1 1 0 0 1-1-1v-8h2v5.586l6.293-6.293 1.414 1.414ZM51.5 31.781c0-2.429-2.866-4.849-7.667-6.474l.641-1.894c5.736 1.941 9.026 4.991 9.026 8.368 0 3.377-3.29 6.427-9.026 8.369l-.641-1.895c4.801-1.624 7.667-4.045 7.667-6.474Zm-38.957 0c0 2.324 2.681 4.679 7.172 6.3l-.68 1.88c-5.396-1.947-8.492-4.928-8.492-8.18 0-3.251 3.096-6.233 8.492-8.18l.68 1.881c-4.491 1.621-7.172 3.976-7.172 6.299ZM52 45.125h2V53a1 1 0 0 1-1 1h-8v-2h5.586l-6.293-6.293 1.414-1.414L52 50.586v-5.461ZM32.022 31.402c-5.023 0-7.896-1.343-8.022-1.919v-3.226c2.159 1.009 5.609 1.336 8 1.336s5.841-.327 8-1.336v3.226c-.106.574-2.949 1.919-7.978 1.919Zm0 5.728c-5.023 0-7.896-1.344-8.022-1.92v-3.254c1.953.981 5.055 1.446 8.022 1.446 2.951 0 6.033-.464 7.978-1.442v3.25c-.106.575-2.948 1.92-7.978 1.92ZM32 42.268c-5.05 0-7.896-1.351-8-1.922v-2.663c1.953.982 5.055 1.447 8.022 1.447 2.951 0 6.033-.464 7.978-1.443v2.655c-.104.575-2.95 1.926-8 1.926Zm0-20.075c4.971 0 7.642 1.177 7.982 1.701-.34.523-3.011 1.699-7.982 1.699-5.091 0-7.767-1.232-8-1.644v-.019c.233-.504 2.909-1.737 8-1.737Zm0-2c-3.714 0-10 .78-10 3.701v16.452c0 2.695 5.184 3.922 10 3.922s10-1.227 10-3.922V23.894c0-2.921-6.286-3.701-10-3.701Z"></path></g></svg></svg></g></svg></g></g></g><g pointer-events="auto"><g><g class="cloud-maps_raptor_node" id="a80ac287-ab94-4685-9dfa-b4037e7bccc7" transform="translate(0 0)"><svg x="160" y="1425" overflow="visible"><text stroke="#ffffff" stroke-width="4" font-family="Noto Sans" y="36.5" font-size="25pt" fill="#f5b720" font-weight="bold" transform="matrix(0.707 0.409 -0.707 0.409 0 0)" paint-order="stroke" xml:space="preserve"><tspan x="8" dy="0">Route 53</tspan></text></svg></g></g><g><g class="cloud-maps_raptor_node" id="6962f3b9-82bd-4765-a899-9bd23c4c6a0d" transform="translate(0 0)"><svg x="336" y="1341" overflow="visible"><text stroke="#ffffff" stroke-width="4" font-family="Noto Sans" y="36.5" font-size="25pt" fill="#f5b720" font-weight="bold" transform="matrix(0.707 0.409 -0.707 0.409 0 0)" paint-order="stroke" xml:space="preserve"><tspan x="8" dy="0">Amplify</tspan></text></svg></g></g><g><g class="cloud-maps_raptor_node" id="e94362cd-12fc-4fd1-8a29-de7b7071e50a" transform="translate(0 0)"><svg x="1264" y="1637" overflow="visible"><text stroke="#ffffff" stroke-width="4" font-family="Noto Sans" y="36.5" font-size="25pt" fill="#f5b720" font-weight="bold" transform="matrix(0.707 0.409 -0.707 0.409 0 0)" paint-order="stroke" xml:space="preserve"><tspan x="8" dy="0">Prod_RDS</tspan></text></svg></g></g><g><g class="cloud-maps_raptor_node" id="5f49ffd9-7378-4434-9955-ad38d2bb949a" transform="translate(0 0)"><svg x="640" y="1332" overflow="visible"><text stroke="#ffffff" stroke-width="4" font-family="Noto Sans" y="36.5" font-size="25pt" fill="#f5b720" font-weight="bold" transform="matrix(0.707 0.409 -0.707 0.409 0 0)" paint-order="stroke" xml:space="preserve"><tspan x="8" dy="0">ECR</tspan></text></svg></g></g><g><g class="cloud-maps_raptor_node" id="b3040f9e-e555-4f8e-ac5a-c4c5d94c2602" transform="translate(0 0)"><svg x="512" y="1240" overflow="visible"><text stroke="#ffffff" stroke-width="4" font-family="Noto Sans" y="36.5" font-size="25pt" fill="#f5b720" font-weight="bold" transform="matrix(0.707 0.409 -0.707 0.409 0 0)" paint-order="stroke" xml:space="preserve"><tspan x="8" dy="0">Github</tspan><tspan x="8" dy="1.1em">Actions</tspan></text></svg></g></g><g><g class="cloud-maps_raptor_node" id="4ee9af89-2885-4a14-a533-fc6da3762e15" transform="translate(0 0)"><svg x="848" y="1452" overflow="visible"><text stroke="#ffffff" stroke-width="4" font-family="Noto Sans" y="36.5" font-size="25pt" fill="#f5b720" font-weight="bold" transform="matrix(0.707 0.409 -0.707 0.409 0 0)" paint-order="stroke" xml:space="preserve"><tspan x="8" dy="0">ECS(Fargate)</tspan></text></svg></g></g><g><g class="cloud-maps_raptor_node" id="20590e83-afde-4a1b-a9d2-a48f20c50c2b" transform="translate(0 0)"><svg x="768" y="1536" overflow="visible"><text stroke="#ffffff" stroke-width="4" font-family="Noto Sans" y="36.5" font-size="25pt" fill="#f5b720" font-weight="bold" transform="matrix(0.707 0.409 -0.707 0.409 0 0)" paint-order="stroke" xml:space="preserve"><tspan x="8" dy="0">ALB</tspan></text></svg></g></g><g><g class="cloud-maps_raptor_node" id="fffcceeb-0922-403d-8544-5d222e43e55a" transform="translate(0 0)"><svg x="1136" y="1711" overflow="visible"><text stroke="#ffffff" stroke-width="4" font-family="Noto Sans" y="36.5" font-size="25pt" fill="#f5b720" font-weight="bold" transform="matrix(0.707 0.409 -0.707 0.409 0 0)" paint-order="stroke" xml:space="preserve"><tspan x="8" dy="0">ElasticCache - Redis</tspan></text></svg></g></g><g><g class="cloud-maps_raptor_node" id="e6070bf4-e922-4d70-a2dd-ebc55bf0686b" transform="translate(0 0)"><svg x="800" y="1758" overflow="visible"><text stroke="#ffffff" stroke-width="4" font-family="Noto Sans" y="36.5" font-size="25pt" fill="#f5b720" font-weight="bold" transform="matrix(0.707 0.409 -0.707 0.409 0 0)" paint-order="stroke" xml:space="preserve"><tspan x="8" dy="0">AWS EC2 for SSH Tunnel</tspan></text></svg></g></g><g><g class="cloud-maps_raptor_node" id="7e69465b-cfb8-41c5-a5ab-00e4119404bb" transform="translate(0 0)"><svg x="1136" y="1304" overflow="visible"><text stroke="#ffffff" stroke-width="4" font-family="Noto Sans" y="36.5" font-size="25pt" fill="#f5b720" font-weight="bold" transform="matrix(0.707 0.409 -0.707 0.409 0 0)" paint-order="stroke" xml:space="preserve"><tspan x="8" dy="0">CloudWatch</tspan></text></svg></g></g><g><g class="cloud-maps_raptor_node" id="bb19b0ab-819e-4095-b700-fd8a506d91a1" transform="translate(0 0)"><svg x="1344" y="1554" overflow="visible"><text stroke="#ffffff" stroke-width="4" font-family="Noto Sans" y="36.5" font-size="25pt" fill="#f5b720" font-weight="bold" transform="matrix(0.707 0.409 -0.707 0.409 0 0)" paint-order="stroke" xml:space="preserve"><tspan x="8" dy="0">S3(Image Storage)</tspan></text></svg></g></g><g><g class="cloud-maps_raptor_node" id="a7d34de0-b125-4b67-8488-e77bfb896e85" transform="translate(0 0)"><svg x="1552" y="1582" overflow="visible"><text stroke="#ffffff" stroke-width="4" font-family="Noto Sans" y="36.5" font-size="25pt" fill="#ff9800" font-weight="bold" transform="matrix(0.707 0.409 -0.707 0.409 0 0)" paint-order="stroke" xml:space="preserve"><tspan x="8" dy="0">DATABASE</tspan></text></svg></g></g><g><g class="cloud-maps_raptor_node" id="4f3b10e0-259e-4e0b-b8d4-b38017ce8307" transform="translate(0 0)"><svg x="512" y="1147" overflow="visible"><text stroke="#ffffff" stroke-width="4" font-family="Noto Sans" y="36.5" font-size="25pt" fill="#4286c5" font-weight="bold" transform="matrix(0.707 0.409 -0.707 0.409 0 0)" paint-order="stroke" xml:space="preserve"><tspan x="8" dy="0">CI/CD PIPELINE</tspan></text></svg></g></g><g><g class="cloud-maps_raptor_node" id="1fad2bdb-9f4d-40d2-bcfb-579f51786915" transform="translate(0 0)"><svg x="16" y="1748" overflow="visible"><text stroke="#ffffff" stroke-width="4" font-family="Noto Sans" y="36.5" font-size="25pt" fill="#f5b720" font-weight="bold" transform="matrix(0.707 0.409 -0.707 0.409 0 0)" paint-order="stroke" xml:space="preserve"><tspan x="8" dy="0">Local Server</tspan></text></svg></g></g><g><g class="cloud-maps_raptor_node" id="cd27c360-f276-4ae4-8121-eab8a0fa1824" transform="translate(0 0)"><svg x="-48" y="1600" overflow="visible"><text stroke="#ffffff" stroke-width="4" font-family="Noto Sans" y="36.5" font-size="25pt" fill="#f5b720" font-weight="bold" transform="matrix(0.707 0.409 -0.707 0.409 0 0)" paint-order="stroke" xml:space="preserve"><tspan x="8" dy="0">Pinpoint</tspan></text></svg></g></g><g><g class="cloud-maps_raptor_node" id="d4386349-533d-4432-96cf-007c5232cd73" transform="translate(0 0)"><svg x="496" y="1859" overflow="visible"><text stroke="#ffffff" stroke-width="4" font-family="Noto Sans" y="36.5" font-size="25pt" fill="#f5b720" font-weight="bold" transform="matrix(0.707 0.409 -0.707 0.409 0 0)" paint-order="stroke" xml:space="preserve"><tspan x="8" dy="0">Test_RDS</tspan></text></svg></g></g><g><g class="cloud-maps_raptor_node" id="7a8a8533-f11d-4853-af46-4083e7ac2154" transform="translate(0 0)"><svg x="352" y="1943" overflow="visible"><text stroke="#ffffff" stroke-width="4" font-family="Noto Sans" y="36.5" font-size="25pt" fill="#f5b720" font-weight="bold" transform="matrix(0.707 0.409 -0.707 0.409 0 0)" paint-order="stroke" xml:space="preserve"><tspan x="8" dy="0">Test_Redis</tspan></text></svg></g></g><g><g class="cloud-maps_raptor_node" id="bd512492-b50c-43c3-8c9b-6ff471f29150" transform="translate(0 0)"><svg x="-192" y="1684" overflow="visible"><text stroke="#ffffff" stroke-width="4" font-family="Noto Sans" y="36.5" font-size="25pt" fill="#9c27b0" font-weight="bold" transform="matrix(0.707 0.409 -0.707 0.409 0 0)" paint-order="stroke" xml:space="preserve"><tspan x="8" dy="0">TEST</tspan></text></svg></g></g></g></g></svg>